<svg version="1.1" id="Layer_1" xmlns="http://www.w3.org/2000/svg" xmlns:xlink="http://www.w3.org/1999/xlink" x="0px" y="0px"
	 width="100%" viewBox="0 0 715 617" enable-background="new 0 0 715 617" xml:space="preserve">
<path fill="#99D9EA" opacity="1.000000" stroke="none" 
	d="
M357.000000,618.000000 
	C238.000000,618.000000 119.500000,618.000000 1.000000,618.000000 
	C1.000000,412.333344 1.000000,206.666672 1.000000,1.000000 
	C239.333328,1.000000 477.666656,1.000000 716.000000,1.000000 
	C716.000000,206.666672 716.000000,412.333344 716.000000,618.000000 
	C596.500000,618.000000 477.000000,618.000000 357.000000,618.000000 
M488.445038,359.157623 
	C400.286957,359.155792 312.128754,359.208191 223.971039,359.031891 
	C218.000000,359.019958 214.888000,360.578156 211.716812,366.151245 
	C185.281296,412.609344 158.300125,458.756897 131.495239,505.004913 
	C130.721252,506.340302 130.075394,507.750000 129.244659,509.368896 
	C281.399139,509.368896 432.805664,509.368896 584.705872,509.368896 
	C584.109924,508.097382 583.770203,507.209198 583.301331,506.395386 
	C556.555054,459.967194 529.670776,413.617432 503.199615,367.032959 
	C499.817108,361.080414 496.369080,357.692352 488.445038,359.157623 
M49.822571,291.516235 
	C49.822571,308.114685 49.822571,324.713135 49.822571,341.832794 
	C47.138973,341.832794 45.152325,341.649231 43.229195,341.918823 
	C42.404903,342.034363 41.712738,343.092438 40.960545,343.722260 
	C41.723656,344.372742 42.393291,345.273560 43.276215,345.603241 
	C44.155952,345.931824 45.249649,345.693420 46.249535,345.693451 
	C96.915306,345.696045 147.581070,345.697510 198.246841,345.699097 
	C200.034698,345.699158 201.822556,345.699097 204.190384,345.699097 
	C204.190384,329.899109 204.190384,314.689728 204.190384,299.480316 
	C204.666443,299.202637 205.142502,298.924927 205.618561,298.647217 
	C206.049026,299.490692 206.358032,300.428314 206.928024,301.163605 
	C217.331390,314.584412 227.853745,327.914368 238.127716,341.433105 
	C240.469177,344.514038 242.886292,345.782318 246.837463,345.779327 
	C387.001587,345.672546 527.165771,345.690063 667.329956,345.688721 
	C668.496460,345.688690 669.747925,345.927338 670.802979,345.579376 
	C671.665710,345.294800 672.294312,344.300171 673.026733,343.620331 
	C672.238892,343.027283 671.480042,341.974640 670.658020,341.922638 
	C667.487427,341.722076 664.296692,341.841217 661.150452,341.841217 
	C663.653259,338.968781 667.270508,336.720795 667.611633,334.053772 
	C668.485718,327.219910 667.903381,320.199738 667.903381,313.215607 
	C663.916687,313.215607 660.536194,313.215607 656.822632,313.215607 
	C656.822632,316.417999 656.822571,319.230316 656.822571,322.042633 
	C656.822449,332.300659 656.634827,332.523071 646.371460,334.437347 
	C645.880188,334.528961 645.393799,334.653534 644.899414,334.720184 
	C632.887939,336.339203 622.022827,329.299500 619.342285,318.166962 
	C616.269348,305.404541 621.845032,294.369080 633.611938,290.578888 
	C642.515137,287.711212 651.002808,289.059479 659.070435,294.790375 
	C661.097046,291.860901 662.906494,289.245392 664.652893,286.720978 
	C653.582825,275.605103 628.323730,275.147675 616.012634,288.562561 
	C610.198792,294.897705 607.173767,302.110352 606.955322,310.643341 
	C606.626953,323.470123 612.294495,333.269348 622.883118,341.082184 
	C621.553467,341.458862 620.963074,341.770905 620.372070,341.772186 
	C607.608521,341.800201 594.844910,341.793518 581.690063,341.793518 
	C599.676147,323.346466 601.891846,304.711914 588.282471,289.273193 
	C577.163147,276.659210 554.868347,274.679718 541.347046,284.991516 
	C531.904419,292.192780 527.497314,301.631409 527.730957,313.478699 
	C527.963013,325.243500 533.700317,334.050446 543.106689,341.531921 
	C534.840881,341.531921 527.577759,341.531921 520.196228,341.531921 
	C519.936829,339.346466 519.709778,337.433472 519.411499,334.920898 
	C509.428680,334.920898 499.702789,334.920898 489.578247,334.920898 
	C489.578247,316.331909 489.578247,298.385498 489.578247,280.186676 
	C485.748199,280.186676 482.346954,280.186676 478.367920,280.186676 
	C478.367920,300.715729 478.367920,320.968506 478.367920,341.435364 
	C462.814270,341.435364 447.841156,341.435364 432.552856,341.435364 
	C443.954224,327.553162 439.974457,314.061523 423.248718,308.587219 
	C418.358673,306.986694 413.403992,305.584320 408.486450,304.066833 
	C404.342499,302.788086 401.832916,300.057526 402.353607,295.626495 
	C402.921692,290.791840 406.561432,289.294159 410.905884,288.883881 
	C418.141327,288.200562 424.690918,290.156891 431.033295,294.360291 
	C432.993744,291.513885 434.798523,288.893433 436.757233,286.049530 
	C426.614502,278.811676 415.989716,276.706146 404.589935,279.558838 
	C395.714935,281.779755 390.738708,288.235382 390.455444,296.719055 
	C390.162720,305.485748 394.797943,311.844055 403.837921,314.920197 
	C406.668213,315.883331 409.592926,316.566437 412.435669,317.496216 
	C416.058838,318.681213 419.893738,319.530243 423.187042,321.342468 
	C428.686707,324.368896 428.697174,331.698090 422.913086,333.977234 
	C418.869812,335.570435 413.707153,335.956940 409.468262,335.001709 
	C404.290649,333.834930 399.556488,330.700134 394.208740,328.220856 
	C392.381073,330.441956 390.220673,333.067444 387.933563,335.846893 
	C390.312988,337.842468 392.329193,339.533417 394.652252,341.481689 
	C387.179352,341.481689 380.461456,341.481689 373.280548,341.481689 
	C373.961060,340.512238 374.306763,339.981537 374.689941,339.479401 
	C383.409729,328.052856 380.457611,316.011292 367.411987,310.045624 
	C365.460632,309.153229 363.363678,308.570587 361.316742,307.897491 
	C356.585052,306.341675 351.562866,305.347321 347.225189,303.053589 
	C345.123871,301.942413 343.064850,298.322784 343.244659,296.014679 
	C343.421661,293.742310 346.132996,291.228088 348.341705,289.701904 
	C349.910675,288.617798 352.604523,288.432617 354.599091,288.831696 
	C360.348663,289.982147 365.998291,291.631989 372.336578,293.251617 
	C373.558075,291.563416 375.374634,289.052765 377.383636,286.276123 
	C367.576172,278.831970 356.973846,276.719360 345.556488,279.542145 
	C336.466705,281.789520 331.617157,287.655945 331.061737,295.799500 
	C330.463989,304.563171 333.856171,310.080627 342.675293,314.149933 
	C345.372162,315.394287 348.317993,316.104645 351.160583,317.026245 
	C355.112976,318.307709 359.401367,318.994904 362.914001,321.028198 
	C365.091003,322.288391 367.351593,325.612152 367.277161,327.936005 
	C367.201935,330.283691 364.712128,333.842102 362.529327,334.547729 
	C358.774078,335.761749 354.194336,336.103363 350.401031,335.117126 
	C345.083954,333.734741 340.170166,330.801086 334.648224,328.336548 
	C332.876648,330.515533 330.740845,333.142548 328.518463,335.876068 
	C330.885925,337.890625 332.762268,339.487305 335.198792,341.560669 
	C329.466583,341.560669 324.844879,341.560669 320.062927,341.560669 
	C319.730774,339.414551 319.434174,337.498108 319.065857,335.118256 
	C307.154053,335.118256 295.399078,335.118256 283.500366,335.118256 
	C283.500366,329.086212 283.500366,323.562744 283.500366,317.577087 
	C294.020813,317.577087 304.133728,317.577087 314.543762,317.577087 
	C314.543762,314.214264 314.543762,311.320526 314.543762,307.805695 
	C304.097717,307.805695 293.863892,307.805695 283.484985,307.805695 
	C283.484985,301.651550 283.484985,296.120911 283.484985,289.995941 
	C295.260986,289.995941 306.648010,289.995941 317.994263,289.995941 
	C317.994263,286.324036 317.994263,283.264221 317.994263,280.242889 
	C302.519287,280.242889 287.438751,280.242889 271.879822,280.242889 
	C271.879822,300.827362 271.879822,321.076660 271.879822,341.460266 
	C265.669952,341.460266 259.946655,341.460266 253.712601,341.460266 
	C253.712601,320.845184 253.712601,300.586823 253.712601,280.248627 
	C249.792755,280.248627 246.398682,280.248627 242.409790,280.248627 
	C242.409790,295.947449 242.409790,311.320557 242.409790,327.938019 
	C240.427322,325.850525 239.232147,324.783936 238.262482,323.541382 
	C228.326675,310.809235 218.406693,298.064575 208.527237,285.288696 
	C203.957764,279.379547 201.082291,278.475281 192.786469,280.926239 
	C192.786469,301.000732 192.786469,321.236328 192.786469,341.454651 
	C182.011749,341.454651 171.771317,341.454651 161.417786,341.454651 
	C161.417786,324.187561 161.417786,307.290283 161.417786,289.790955 
	C168.128448,289.790955 174.524124,289.790955 180.789444,289.790955 
	C180.789444,286.244293 180.789444,283.305237 180.789444,280.226624 
	C163.764587,280.226624 147.036484,280.226624 130.279449,280.226624 
	C130.279449,283.608154 130.279449,286.659760 130.279449,290.269165 
	C137.038757,290.269165 143.440338,290.269165 149.566345,290.269165 
	C149.566345,307.743439 149.566345,324.645111 149.566345,341.493347 
	C138.886383,341.493347 128.629166,341.493347 117.880676,341.493347 
	C117.880676,320.917542 117.880676,300.664246 117.880676,280.240967 
	C113.991928,280.240967 110.606857,280.240967 106.667526,280.240967 
	C106.667526,300.810730 106.667526,321.050354 106.667526,341.508453 
	C91.209961,341.508453 76.312408,341.508453 61.334740,341.508453 
	C61.334740,333.801697 61.334740,326.414978 61.334740,318.597717 
	C70.998985,318.597717 80.280968,318.597717 89.817184,318.597717 
	C89.817184,315.073273 89.817184,311.986267 89.817184,308.275543 
	C80.244644,308.275543 70.844666,308.275543 61.343185,308.275543 
	C61.343185,301.944153 61.343185,296.240295 61.343185,289.922852 
	C72.284050,289.922852 82.838745,289.922852 93.572601,289.922852 
	C93.572601,286.369171 93.572601,283.438751 93.572601,280.261414 
	C78.957741,280.261414 64.583885,280.261414 49.822483,280.261414 
	C49.822483,283.909821 49.822483,287.215881 49.822571,291.516235 
M303.916840,206.413528 
	C292.810638,225.661270 281.704468,244.909012 270.390747,264.516388 
	C328.397400,264.516388 385.684479,264.516388 443.640961,264.516388 
	C414.727020,214.357330 386.122894,164.735809 357.042694,114.288383 
	C339.107239,145.369507 321.681793,175.566788 303.916840,206.413528 
z"/>
<path fill="#0426FF" opacity="1.000000" stroke="none" 
	d="
M488.932068,359.157654 
	C496.369080,357.692352 499.817108,361.080414 503.199615,367.032959 
	C529.670776,413.617432 556.555054,459.967194 583.301331,506.395386 
	C583.770203,507.209198 584.109924,508.097382 584.705872,509.368896 
	C432.805664,509.368896 281.399139,509.368896 129.244659,509.368896 
	C130.075394,507.750000 130.721252,506.340302 131.495239,505.004913 
	C158.300125,458.756897 185.281296,412.609344 211.716812,366.151245 
	C214.888000,360.578156 218.000000,359.019958 223.971039,359.031891 
	C312.128754,359.208191 400.286957,359.155792 488.932068,359.157654 
z"/>
<path fill="#072AFE" opacity="1.000000" stroke="none" 
	d="
M49.822525,291.019073 
	C49.822483,287.215881 49.822483,283.909821 49.822483,280.261414 
	C64.583885,280.261414 78.957741,280.261414 93.572601,280.261414 
	C93.572601,283.438751 93.572601,286.369171 93.572601,289.922852 
	C82.838745,289.922852 72.284050,289.922852 61.343185,289.922852 
	C61.343185,296.240295 61.343185,301.944153 61.343185,308.275543 
	C70.844666,308.275543 80.244644,308.275543 89.817184,308.275543 
	C89.817184,311.986267 89.817184,315.073273 89.817184,318.597717 
	C80.280968,318.597717 70.998985,318.597717 61.334740,318.597717 
	C61.334740,326.414978 61.334740,333.801697 61.334740,341.508453 
	C76.312408,341.508453 91.209961,341.508453 106.667526,341.508453 
	C106.667526,321.050354 106.667526,300.810730 106.667526,280.240967 
	C110.606857,280.240967 113.991928,280.240967 117.880676,280.240967 
	C117.880676,300.664246 117.880676,320.917542 117.880676,341.493347 
	C128.629166,341.493347 138.886383,341.493347 149.566345,341.493347 
	C149.566345,324.645111 149.566345,307.743439 149.566345,290.269165 
	C143.440338,290.269165 137.038757,290.269165 130.279449,290.269165 
	C130.279449,286.659760 130.279449,283.608154 130.279449,280.226624 
	C147.036484,280.226624 163.764587,280.226624 180.789444,280.226624 
	C180.789444,283.305237 180.789444,286.244293 180.789444,289.790955 
	C174.524124,289.790955 168.128448,289.790955 161.417786,289.790955 
	C161.417786,307.290283 161.417786,324.187561 161.417786,341.454651 
	C171.771317,341.454651 182.011749,341.454651 192.786469,341.454651 
	C192.786469,321.236328 192.786469,301.000732 192.786469,280.926239 
	C201.082291,278.475281 203.957764,279.379547 208.527237,285.288696 
	C218.406693,298.064575 228.326675,310.809235 238.262482,323.541382 
	C239.232147,324.783936 240.427322,325.850525 242.409790,327.938019 
	C242.409790,311.320557 242.409790,295.947449 242.409790,280.248627 
	C246.398682,280.248627 249.792755,280.248627 253.712601,280.248627 
	C253.712601,300.586823 253.712601,320.845184 253.712601,341.460266 
	C259.946655,341.460266 265.669952,341.460266 271.879822,341.460266 
	C271.879822,321.076660 271.879822,300.827362 271.879822,280.242889 
	C287.438751,280.242889 302.519287,280.242889 317.994263,280.242889 
	C317.994263,283.264221 317.994263,286.324036 317.994263,289.995941 
	C306.648010,289.995941 295.260986,289.995941 283.484985,289.995941 
	C283.484985,296.120911 283.484985,301.651550 283.484985,307.805695 
	C293.863892,307.805695 304.097717,307.805695 314.543762,307.805695 
	C314.543762,311.320526 314.543762,314.214264 314.543762,317.577087 
	C304.133728,317.577087 294.020813,317.577087 283.500366,317.577087 
	C283.500366,323.562744 283.500366,329.086212 283.500366,335.118256 
	C295.399078,335.118256 307.154053,335.118256 319.065857,335.118256 
	C319.434174,337.498108 319.730774,339.414551 320.062927,341.560669 
	C324.844879,341.560669 329.466583,341.560669 335.198792,341.560669 
	C332.762268,339.487305 330.885925,337.890625 328.518463,335.876068 
	C330.740845,333.142548 332.876648,330.515533 334.648224,328.336548 
	C340.170166,330.801086 345.083954,333.734741 350.401031,335.117126 
	C354.194336,336.103363 358.774078,335.761749 362.529327,334.547729 
	C364.712128,333.842102 367.201935,330.283691 367.277161,327.936005 
	C367.351593,325.612152 365.091003,322.288391 362.914001,321.028198 
	C359.401367,318.994904 355.112976,318.307709 351.160583,317.026245 
	C348.317993,316.104645 345.372162,315.394287 342.675293,314.149933 
	C333.856171,310.080627 330.463989,304.563171 331.061737,295.799500 
	C331.617157,287.655945 336.466705,281.789520 345.556488,279.542145 
	C356.973846,276.719360 367.576172,278.831970 377.383636,286.276123 
	C375.374634,289.052765 373.558075,291.563416 372.336578,293.251617 
	C365.998291,291.631989 360.348663,289.982147 354.599091,288.831696 
	C352.604523,288.432617 349.910675,288.617798 348.341705,289.701904 
	C346.132996,291.228088 343.421661,293.742310 343.244659,296.014679 
	C343.064850,298.322784 345.123871,301.942413 347.225189,303.053589 
	C351.562866,305.347321 356.585052,306.341675 361.316742,307.897491 
	C363.363678,308.570587 365.460632,309.153229 367.411987,310.045624 
	C380.457611,316.011292 383.409729,328.052856 374.689941,339.479401 
	C374.306763,339.981537 373.961060,340.512238 373.280548,341.481689 
	C380.461456,341.481689 387.179352,341.481689 394.652252,341.481689 
	C392.329193,339.533417 390.312988,337.842468 387.933563,335.846893 
	C390.220673,333.067444 392.381073,330.441956 394.208740,328.220856 
	C399.556488,330.700134 404.290649,333.834930 409.468262,335.001709 
	C413.707153,335.956940 418.869812,335.570435 422.913086,333.977234 
	C428.697174,331.698090 428.686707,324.368896 423.187042,321.342468 
	C419.893738,319.530243 416.058838,318.681213 412.435669,317.496216 
	C409.592926,316.566437 406.668213,315.883331 403.837921,314.920197 
	C394.797943,311.844055 390.162720,305.485748 390.455444,296.719055 
	C390.738708,288.235382 395.714935,281.779755 404.589935,279.558838 
	C415.989716,276.706146 426.614502,278.811676 436.757233,286.049530 
	C434.798523,288.893433 432.993744,291.513885 431.033295,294.360291 
	C424.690918,290.156891 418.141327,288.200562 410.905884,288.883881 
	C406.561432,289.294159 402.921692,290.791840 402.353607,295.626495 
	C401.832916,300.057526 404.342499,302.788086 408.486450,304.066833 
	C413.403992,305.584320 418.358673,306.986694 423.248718,308.587219 
	C439.974457,314.061523 443.954224,327.553162 432.552856,341.435364 
	C447.841156,341.435364 462.814270,341.435364 478.367920,341.435364 
	C478.367920,320.968506 478.367920,300.715729 478.367920,280.186676 
	C482.346954,280.186676 485.748199,280.186676 489.578247,280.186676 
	C489.578247,298.385498 489.578247,316.331909 489.578247,334.920898 
	C499.702789,334.920898 509.428680,334.920898 519.411499,334.920898 
	C519.709778,337.433472 519.936829,339.346466 520.196228,341.531921 
	C527.577759,341.531921 534.840881,341.531921 543.106689,341.531921 
	C533.700317,334.050446 527.963013,325.243500 527.730957,313.478699 
	C527.497314,301.631409 531.904419,292.192780 541.347046,284.991516 
	C554.868347,274.679718 577.163147,276.659210 588.282471,289.273193 
	C601.891846,304.711914 599.676147,323.346466 581.690063,341.793518 
	C594.844910,341.793518 607.608521,341.800201 620.372070,341.772186 
	C620.963074,341.770905 621.553467,341.458862 622.883118,341.082184 
	C612.294495,333.269348 606.626953,323.470123 606.955322,310.643341 
	C607.173767,302.110352 610.198792,294.897705 616.012634,288.562561 
	C628.323730,275.147675 653.582825,275.605103 664.652893,286.720978 
	C662.906494,289.245392 661.097046,291.860901 659.070435,294.790375 
	C651.002808,289.059479 642.515137,287.711212 633.611938,290.578888 
	C621.845032,294.369080 616.269348,305.404541 619.342285,318.166962 
	C622.022827,329.299500 632.887939,336.339203 644.899414,334.720184 
	C645.393799,334.653534 645.880188,334.528961 646.371460,334.437347 
	C656.634827,332.523071 656.822449,332.300659 656.822571,322.042633 
	C656.822571,319.230316 656.822632,316.417999 656.822632,313.215607 
	C660.536194,313.215607 663.916687,313.215607 667.903381,313.215607 
	C667.903381,320.199738 668.485718,327.219910 667.611633,334.053772 
	C667.270508,336.720795 663.653259,338.968781 661.150452,341.841217 
	C664.296692,341.841217 667.487427,341.722076 670.658020,341.922638 
	C671.480042,341.974640 672.238892,343.027283 673.026733,343.620331 
	C672.294312,344.300171 671.665710,345.294800 670.802979,345.579376 
	C669.747925,345.927338 668.496460,345.688690 667.329956,345.688721 
	C527.165771,345.690063 387.001587,345.672546 246.837463,345.779327 
	C242.886292,345.782318 240.469177,344.514038 238.127716,341.433105 
	C227.853745,327.914368 217.331390,314.584412 206.928024,301.163605 
	C206.358032,300.428314 206.049026,299.490692 205.618561,298.647217 
	C205.142502,298.924927 204.666443,299.202637 204.190384,299.480316 
	C204.190384,314.689728 204.190384,329.899109 204.190384,345.699097 
	C201.822556,345.699097 200.034698,345.699158 198.246841,345.699097 
	C147.581070,345.697510 96.915306,345.696045 46.249535,345.693451 
	C45.249649,345.693420 44.155952,345.931824 43.276215,345.603241 
	C42.393291,345.273560 41.723656,344.372742 40.960541,343.722260 
	C41.712738,343.092438 42.404903,342.034363 43.229195,341.918823 
	C45.152325,341.649231 47.138973,341.832794 49.822571,341.832794 
	C49.822571,324.713135 49.822571,308.114685 49.822525,291.019073 
M578.791809,329.287140 
	C579.540161,328.396149 580.333069,327.538574 581.029968,326.609009 
	C587.519409,317.953064 586.862061,304.377716 579.570984,296.127441 
	C572.559631,288.193695 559.965881,286.160065 550.899963,291.497803 
	C539.013550,298.496124 535.464661,314.453369 543.101135,325.858124 
	C551.440796,338.313202 568.992676,339.352905 578.791809,329.287140 
z"/>
<path fill="#0426FE" opacity="1.000000" stroke="none" 
	d="
M304.086609,206.088791 
	C321.681793,175.566788 339.107239,145.369507 357.042694,114.288383 
	C386.122894,164.735809 414.727020,214.357330 443.640961,264.516388 
	C385.684479,264.516388 328.397400,264.516388 270.390747,264.516388 
	C281.704468,244.909012 292.810638,225.661270 304.086609,206.088791 
z"/>
<path fill="#97D7EA" opacity="1.000000" stroke="none" 
	d="
M578.534973,329.542969 
	C568.992676,339.352905 551.440796,338.313202 543.101135,325.858124 
	C535.464661,314.453369 539.013550,298.496124 550.899963,291.497803 
	C559.965881,286.160065 572.559631,288.193695 579.570984,296.127441 
	C586.862061,304.377716 587.519409,317.953064 581.029968,326.609009 
	C580.333069,327.538574 579.540161,328.396149 578.534973,329.542969 
z"/>
</svg>