<svg version="1.1" id="Layer_1" xmlns="http://www.w3.org/2000/svg" xmlns:xlink="http://www.w3.org/1999/xlink" x="0px" y="0px"
	 width="100%" viewBox="0 0 1000 1000" enable-background="new 0 0 1000 1000" xml:space="preserve">
<path fill="#99D9EA" opacity="1.000000" stroke="none" 
	d="
M582.000000,1001.000000 
	C388.000000,1001.000000 194.500000,1001.000000 1.000000,1001.000000 
	C1.000000,667.666687 1.000000,334.333344 1.000000,1.000000 
	C334.333344,1.000000 667.666687,1.000000 1001.000000,1.000000 
	C1001.000000,334.333344 1001.000000,667.666687 1001.000000,1001.000000 
	C861.500000,1001.000000 722.000000,1001.000000 582.000000,1001.000000 
M392.500000,521.157104 
	C382.334625,521.155273 372.155853,521.466736 362.008972,521.032532 
	C356.038147,520.777100 352.904510,522.526428 349.723602,528.117798 
	C323.293152,574.576843 296.314911,620.724182 269.514709,666.973022 
	C268.736206,668.316467 268.097107,669.740662 267.259613,671.389893 
	C419.372223,671.389893 570.781494,671.389893 722.697510,671.389893 
	C722.124329,670.132568 721.802612,669.240479 721.336609,668.431519 
	C694.093567,621.138550 666.772095,573.890442 639.698669,526.500610 
	C637.280701,522.268188 634.691833,521.034180 629.974731,521.043701 
	C551.150085,521.202698 472.324982,521.157166 392.500000,521.157104 
M799.691101,474.775482 
	C798.114258,474.775482 796.537415,474.775482 794.775085,474.775482 
	C794.775085,477.918274 794.775208,480.246643 794.775146,482.575043 
	C794.774902,494.252075 793.103943,496.026337 781.300354,496.816803 
	C780.140259,496.894470 778.965576,496.904572 777.806335,496.822937 
	C766.367126,496.017120 758.027283,488.148651 756.864258,477.096375 
	C755.566467,464.762329 761.176453,455.490814 772.202515,452.382843 
	C780.954590,449.915894 789.312012,451.070099 797.078979,456.901123 
	C799.145081,453.874664 800.951782,451.228058 802.711121,448.650940 
	C791.135742,437.439758 766.538391,437.436157 754.434326,450.119202 
	C748.780334,456.043579 745.538330,462.857178 745.014160,471.027771 
	C744.157532,484.379669 749.671021,494.753693 761.024902,503.239349 
	C746.890686,503.239349 734.005981,503.239349 720.653198,503.239349 
	C737.727173,484.035889 739.535583,466.348694 726.377319,451.376953 
	C715.687500,439.213867 694.328857,436.656921 680.640137,445.979034 
	C673.487427,450.850037 668.425415,457.432007 666.596436,465.915771 
	C663.425232,480.624847 668.065002,492.950745 680.702026,503.411011 
	C672.166504,503.411011 665.303833,503.411011 658.277588,503.411011 
	C657.972656,501.308044 657.696289,499.401886 657.357788,497.067017 
	C647.524841,497.067017 637.929138,497.067017 627.737305,497.067017 
	C627.737305,478.536469 627.737305,460.471558 627.737305,442.200195 
	C623.728210,442.200195 620.327698,442.200195 616.300659,442.200195 
	C616.300659,462.737915 616.300659,482.987793 616.300659,503.278564 
	C600.882690,503.278564 586.098267,503.278564 571.023132,503.278564 
	C572.578674,500.864624 574.059998,499.051117 575.020203,496.994354 
	C580.038330,486.244751 575.458618,475.803955 563.662231,471.462006 
	C557.903625,469.342407 551.917114,467.850250 546.088013,465.911041 
	C542.228333,464.627075 539.830444,461.917786 540.330750,457.676575 
	C540.868652,453.116882 544.193359,451.212311 548.370361,450.994965 
	C551.492126,450.832550 554.758606,450.829834 557.757324,451.574524 
	C561.692261,452.551727 565.427368,454.333527 569.457153,455.847687 
	C571.159546,453.353973 572.886719,450.824005 574.769226,448.066437 
	C564.645813,440.805725 554.021362,438.719849 542.625244,441.544830 
	C533.733765,443.748962 528.765259,450.169830 528.453186,458.671600 
	C528.130798,467.451782 532.738525,473.845032 541.788574,476.897156 
	C545.407104,478.117493 549.156616,478.945068 552.795898,480.109650 
	C555.636719,481.018707 558.601379,481.820770 561.155029,483.289459 
	C566.609131,486.426361 566.721497,493.662720 560.952698,495.956085 
	C556.916626,497.560638 551.752319,497.952179 547.512634,497.004150 
	C542.332886,495.845886 537.593201,492.719330 532.202332,490.231232 
	C530.397522,492.417114 528.233032,495.038605 525.928406,497.829895 
	C528.104492,499.668304 529.937073,501.216461 532.465698,503.352661 
	C525.105469,503.352661 518.681824,503.352661 511.554596,503.352661 
	C512.408325,502.090240 512.841370,501.439423 513.284851,500.795837 
	C521.241821,489.247711 518.287476,477.741241 505.479218,472.157410 
	C499.878998,469.715912 493.787354,468.413605 487.948364,466.503784 
	C483.676941,465.106720 480.322327,462.747650 480.957092,457.596649 
	C481.603760,452.348907 485.736908,450.558075 490.010071,450.967163 
	C496.609070,451.598907 503.101288,453.346191 509.638794,454.620361 
	C509.651001,455.133484 509.663208,455.646606 509.675415,456.159729 
	C511.501190,453.640320 513.326965,451.120911 515.131104,448.631348 
	C505.800934,439.760406 487.810272,437.691742 477.226318,444.100433 
	C468.203308,449.563965 465.665924,463.879944 473.304932,470.962158 
	C477.251892,474.621429 482.960358,476.528717 488.090942,478.716339 
	C492.195648,480.466522 496.921051,480.899719 500.804108,482.977081 
	C503.006165,484.155090 505.454651,487.579346 505.274963,489.787109 
	C505.070587,492.298431 502.506348,495.835480 500.163788,496.670258 
	C496.627106,497.930542 492.150024,498.139801 488.514374,497.158722 
	C483.189606,495.721832 478.255493,492.837250 472.647461,490.343964 
	C470.936096,492.427399 468.781830,495.050049 466.506622,497.819946 
	C468.637268,499.676941 470.321655,501.145020 472.824066,503.326019 
	C467.294983,503.326019 462.820221,503.326019 458.101135,503.326019 
	C457.756104,501.352600 457.422089,499.442413 457.007599,497.071777 
	C445.122894,497.071777 433.364746,497.071777 421.353394,497.071777 
	C421.353394,491.165680 421.353394,485.758606 421.353394,479.711853 
	C431.824921,479.711853 442.060669,479.711853 452.565887,479.711853 
	C452.565887,476.148407 452.565887,473.218903 452.565887,469.747742 
	C442.220093,469.747742 431.944916,469.747742 421.536713,469.747742 
	C421.536713,463.678925 421.536713,458.156738 421.536713,452.034302 
	C433.372559,452.034302 444.767761,452.034302 455.993500,452.034302 
	C455.993500,448.343597 455.993500,445.269562 455.993500,442.242859 
	C440.517303,442.242859 425.436920,442.242859 409.882782,442.242859 
	C409.882782,462.841431 409.882782,483.103333 409.882782,503.566589 
	C403.774750,503.566589 398.145020,503.566589 391.807800,503.566589 
	C391.807800,482.986572 391.807800,462.598145 391.807800,442.109009 
	C387.798859,442.109009 384.498077,442.109009 380.431824,442.109009 
	C380.431824,457.771362 380.431824,473.256470 380.431824,490.241364 
	C378.193512,487.670624 376.971802,486.392975 375.890503,485.005920 
	C366.370239,472.794037 356.425354,460.877106 347.561401,448.204773 
	C343.109650,441.840332 338.105042,440.962860 331.022705,442.477600 
	C331.022705,462.756012 331.022705,483.015900 331.022705,503.496948 
	C320.235504,503.496948 309.970856,503.496948 299.396240,503.496948 
	C299.396240,486.318756 299.396240,469.417969 299.396240,451.914886 
	C306.015015,451.914886 312.411774,451.914886 318.669434,451.914886 
	C318.669434,448.249817 318.669434,445.194794 318.669434,442.167053 
	C301.645721,442.167053 285.038940,442.167053 268.214172,442.167053 
	C268.214172,445.484406 268.214172,448.535858 268.214172,452.150024 
	C274.905548,452.150024 281.305511,452.150024 287.620270,452.150024 
	C287.620270,469.617828 287.620270,486.516876 287.620270,503.488586 
	C276.984955,503.488586 266.717377,503.488586 255.930389,503.488586 
	C255.930389,482.951416 255.930389,462.694214 255.930389,442.173523 
	C251.996429,442.173523 248.583435,442.173523 244.771194,442.173523 
	C244.771194,444.211731 244.771088,446.025452 244.771225,447.839172 
	C244.772461,464.338135 244.778473,480.837128 244.772568,497.336090 
	C244.770264,503.762787 244.758011,503.769623 238.125153,503.773468 
	C227.792465,503.779449 217.459763,503.775085 207.127075,503.775116 
	C204.538483,503.775116 201.949890,503.775116 199.234772,503.775116 
	C199.234772,495.784515 199.234772,488.528137 199.234772,480.661346 
	C208.913834,480.661346 218.318359,480.661346 227.779999,480.661346 
	C227.779999,476.957367 227.779999,473.869629 227.779999,470.150055 
	C218.100494,470.150055 208.709076,470.150055 199.222992,470.150055 
	C199.222992,463.905273 199.222992,458.302795 199.222992,452.171173 
	C210.090210,452.171173 220.692322,452.171173 231.526733,452.171173 
	C231.526733,448.559692 231.526733,445.482025 231.526733,442.256561 
	C216.861908,442.256561 202.485306,442.256561 187.775116,442.256561 
	C187.775116,460.247223 187.775497,477.897766 187.774948,495.548340 
	C187.774704,503.355713 187.773483,503.350891 179.937973,503.946045 
	C179.676178,503.965942 179.437973,504.296509 179.028915,504.601440 
	C178.446289,508.963043 181.853531,507.648071 183.913345,507.650452 
	C234.910126,507.709595 285.906982,507.700439 336.903809,507.690002 
	C338.517090,507.689667 340.130341,507.546906 342.418427,507.438629 
	C342.418427,492.082062 342.418427,477.073669 342.418427,460.538086 
	C344.726288,463.170441 346.064850,464.550507 347.238464,466.058960 
	C356.847473,478.409668 366.531860,490.704437 375.940948,503.206207 
	C378.381042,506.448334 380.905945,507.785522 385.043091,507.782257 
	C525.034363,507.671814 665.025635,507.690582 805.016968,507.689880 
	C806.183533,507.689850 807.490784,508.009003 808.479675,507.586945 
	C809.622803,507.099030 810.485413,505.954010 811.469788,505.094269 
	C811.171570,504.729736 810.873352,504.365173 810.575134,504.000641 
	C807.101440,503.806793 803.627747,503.612946 800.204468,503.421906 
	C802.361328,500.472961 805.402954,498.168793 805.687378,495.563660 
	C806.420105,488.851898 805.932556,482.006897 805.932556,474.776031 
	C803.834045,474.776031 802.190369,474.776031 799.691101,474.775482 
M519.500000,426.844025 
	C540.009583,426.844025 560.519104,426.844025 581.838745,426.844025 
	C552.675049,376.259827 524.066467,326.638336 495.030243,276.275208 
	C465.826782,326.915924 437.198456,376.559296 408.200531,426.843597 
	C445.587128,426.843597 482.043579,426.843597 519.500000,426.844025 
z"/>
<path fill="#0426FF" opacity="1.000000" stroke="none" 
	d="
M393.000000,521.157104 
	C472.324982,521.157166 551.150085,521.202698 629.974731,521.043701 
	C634.691833,521.034180 637.280701,522.268188 639.698669,526.500610 
	C666.772095,573.890442 694.093567,621.138550 721.336609,668.431519 
	C721.802612,669.240479 722.124329,670.132568 722.697510,671.389893 
	C570.781494,671.389893 419.372223,671.389893 267.259613,671.389893 
	C268.097107,669.740662 268.736206,668.316467 269.514709,666.973022 
	C296.314911,620.724182 323.293152,574.576843 349.723602,528.117798 
	C352.904510,522.526428 356.038147,520.777100 362.008972,521.032532 
	C372.155853,521.466736 382.334625,521.155273 393.000000,521.157104 
z"/>
<path fill="#072AFE" opacity="1.000000" stroke="none" 
	d="
M800.118896,474.775757 
	C802.190369,474.776031 803.834045,474.776031 805.932556,474.776031 
	C805.932556,482.006897 806.420105,488.851898 805.687378,495.563660 
	C805.402954,498.168793 802.361328,500.472961 800.204468,503.421906 
	C803.627747,503.612946 807.101440,503.806793 810.575134,504.000641 
	C810.873352,504.365173 811.171570,504.729736 811.469788,505.094269 
	C810.485413,505.954010 809.622803,507.099030 808.479675,507.586945 
	C807.490784,508.009003 806.183533,507.689850 805.016968,507.689880 
	C665.025635,507.690582 525.034363,507.671814 385.043091,507.782257 
	C380.905945,507.785522 378.381042,506.448334 375.940948,503.206207 
	C366.531860,490.704437 356.847473,478.409668 347.238464,466.058960 
	C346.064850,464.550507 344.726288,463.170441 342.418427,460.538086 
	C342.418427,477.073669 342.418427,492.082062 342.418427,507.438629 
	C340.130341,507.546906 338.517090,507.689667 336.903809,507.690002 
	C285.906982,507.700439 234.910126,507.709595 183.913345,507.650452 
	C181.853531,507.648071 178.446289,508.963043 179.028915,504.601440 
	C179.437973,504.296509 179.676178,503.965942 179.937973,503.946045 
	C187.773483,503.350891 187.774704,503.355713 187.774948,495.548340 
	C187.775497,477.897766 187.775116,460.247223 187.775116,442.256561 
	C202.485306,442.256561 216.861908,442.256561 231.526733,442.256561 
	C231.526733,445.482025 231.526733,448.559692 231.526733,452.171173 
	C220.692322,452.171173 210.090210,452.171173 199.222992,452.171173 
	C199.222992,458.302795 199.222992,463.905273 199.222992,470.150055 
	C208.709076,470.150055 218.100494,470.150055 227.779999,470.150055 
	C227.779999,473.869629 227.779999,476.957367 227.779999,480.661346 
	C218.318359,480.661346 208.913834,480.661346 199.234772,480.661346 
	C199.234772,488.528137 199.234772,495.784515 199.234772,503.775116 
	C201.949890,503.775116 204.538483,503.775116 207.127075,503.775116 
	C217.459763,503.775085 227.792465,503.779449 238.125153,503.773468 
	C244.758011,503.769623 244.770264,503.762787 244.772568,497.336090 
	C244.778473,480.837128 244.772461,464.338135 244.771225,447.839172 
	C244.771088,446.025452 244.771194,444.211731 244.771194,442.173523 
	C248.583435,442.173523 251.996429,442.173523 255.930389,442.173523 
	C255.930389,462.694214 255.930389,482.951416 255.930389,503.488586 
	C266.717377,503.488586 276.984955,503.488586 287.620270,503.488586 
	C287.620270,486.516876 287.620270,469.617828 287.620270,452.150024 
	C281.305511,452.150024 274.905548,452.150024 268.214172,452.150024 
	C268.214172,448.535858 268.214172,445.484406 268.214172,442.167053 
	C285.038940,442.167053 301.645721,442.167053 318.669434,442.167053 
	C318.669434,445.194794 318.669434,448.249817 318.669434,451.914886 
	C312.411774,451.914886 306.015015,451.914886 299.396240,451.914886 
	C299.396240,469.417969 299.396240,486.318756 299.396240,503.496948 
	C309.970856,503.496948 320.235504,503.496948 331.022705,503.496948 
	C331.022705,483.015900 331.022705,462.756012 331.022705,442.477600 
	C338.105042,440.962860 343.109650,441.840332 347.561401,448.204773 
	C356.425354,460.877106 366.370239,472.794037 375.890503,485.005920 
	C376.971802,486.392975 378.193512,487.670624 380.431824,490.241364 
	C380.431824,473.256470 380.431824,457.771362 380.431824,442.109009 
	C384.498077,442.109009 387.798859,442.109009 391.807800,442.109009 
	C391.807800,462.598145 391.807800,482.986572 391.807800,503.566589 
	C398.145020,503.566589 403.774750,503.566589 409.882782,503.566589 
	C409.882782,483.103333 409.882782,462.841431 409.882782,442.242859 
	C425.436920,442.242859 440.517303,442.242859 455.993500,442.242859 
	C455.993500,445.269562 455.993500,448.343597 455.993500,452.034302 
	C444.767761,452.034302 433.372559,452.034302 421.536713,452.034302 
	C421.536713,458.156738 421.536713,463.678925 421.536713,469.747742 
	C431.944916,469.747742 442.220093,469.747742 452.565887,469.747742 
	C452.565887,473.218903 452.565887,476.148407 452.565887,479.711853 
	C442.060669,479.711853 431.824921,479.711853 421.353394,479.711853 
	C421.353394,485.758606 421.353394,491.165680 421.353394,497.071777 
	C433.364746,497.071777 445.122894,497.071777 457.007599,497.071777 
	C457.422089,499.442413 457.756104,501.352600 458.101135,503.326019 
	C462.820221,503.326019 467.294983,503.326019 472.824066,503.326019 
	C470.321655,501.145020 468.637268,499.676941 466.506622,497.819946 
	C468.781830,495.050049 470.936096,492.427399 472.647461,490.343964 
	C478.255493,492.837250 483.189606,495.721832 488.514374,497.158722 
	C492.150024,498.139801 496.627106,497.930542 500.163788,496.670258 
	C502.506348,495.835480 505.070587,492.298431 505.274963,489.787109 
	C505.454651,487.579346 503.006165,484.155090 500.804108,482.977081 
	C496.921051,480.899719 492.195648,480.466522 488.090942,478.716339 
	C482.960358,476.528717 477.251892,474.621429 473.304932,470.962158 
	C465.665924,463.879944 468.203308,449.563965 477.226318,444.100433 
	C487.810272,437.691742 505.800934,439.760406 515.131104,448.631348 
	C513.326965,451.120911 511.501190,453.640320 509.675415,456.159729 
	C509.663208,455.646606 509.651001,455.133484 509.638794,454.620361 
	C503.101288,453.346191 496.609070,451.598907 490.010071,450.967163 
	C485.736908,450.558075 481.603760,452.348907 480.957092,457.596649 
	C480.322327,462.747650 483.676941,465.106720 487.948364,466.503784 
	C493.787354,468.413605 499.878998,469.715912 505.479218,472.157410 
	C518.287476,477.741241 521.241821,489.247711 513.284851,500.795837 
	C512.841370,501.439423 512.408325,502.090240 511.554596,503.352661 
	C518.681824,503.352661 525.105469,503.352661 532.465698,503.352661 
	C529.937073,501.216461 528.104492,499.668304 525.928406,497.829895 
	C528.233032,495.038605 530.397522,492.417114 532.202332,490.231232 
	C537.593201,492.719330 542.332886,495.845886 547.512634,497.004150 
	C551.752319,497.952179 556.916626,497.560638 560.952698,495.956085 
	C566.721497,493.662720 566.609131,486.426361 561.155029,483.289459 
	C558.601379,481.820770 555.636719,481.018707 552.795898,480.109650 
	C549.156616,478.945068 545.407104,478.117493 541.788574,476.897156 
	C532.738525,473.845032 528.130798,467.451782 528.453186,458.671600 
	C528.765259,450.169830 533.733765,443.748962 542.625244,441.544830 
	C554.021362,438.719849 564.645813,440.805725 574.769226,448.066437 
	C572.886719,450.824005 571.159546,453.353973 569.457153,455.847687 
	C565.427368,454.333527 561.692261,452.551727 557.757324,451.574524 
	C554.758606,450.829834 551.492126,450.832550 548.370361,450.994965 
	C544.193359,451.212311 540.868652,453.116882 540.330750,457.676575 
	C539.830444,461.917786 542.228333,464.627075 546.088013,465.911041 
	C551.917114,467.850250 557.903625,469.342407 563.662231,471.462006 
	C575.458618,475.803955 580.038330,486.244751 575.020203,496.994354 
	C574.059998,499.051117 572.578674,500.864624 571.023132,503.278564 
	C586.098267,503.278564 600.882690,503.278564 616.300659,503.278564 
	C616.300659,482.987793 616.300659,462.737915 616.300659,442.200195 
	C620.327698,442.200195 623.728210,442.200195 627.737305,442.200195 
	C627.737305,460.471558 627.737305,478.536469 627.737305,497.067017 
	C637.929138,497.067017 647.524841,497.067017 657.357788,497.067017 
	C657.696289,499.401886 657.972656,501.308044 658.277588,503.411011 
	C665.303833,503.411011 672.166504,503.411011 680.702026,503.411011 
	C668.065002,492.950745 663.425232,480.624847 666.596436,465.915771 
	C668.425415,457.432007 673.487427,450.850037 680.640137,445.979034 
	C694.328857,436.656921 715.687500,439.213867 726.377319,451.376953 
	C739.535583,466.348694 737.727173,484.035889 720.653198,503.239349 
	C734.005981,503.239349 746.890686,503.239349 761.024902,503.239349 
	C749.671021,494.753693 744.157532,484.379669 745.014160,471.027771 
	C745.538330,462.857178 748.780334,456.043579 754.434326,450.119202 
	C766.538391,437.436157 791.135742,437.439758 802.711121,448.650940 
	C800.951782,451.228058 799.145081,453.874664 797.078979,456.901123 
	C789.312012,451.070099 780.954590,449.915894 772.202515,452.382843 
	C761.176453,455.490814 755.566467,464.762329 756.864258,477.096375 
	C758.027283,488.148651 766.367126,496.017120 777.806335,496.822937 
	C778.965576,496.904572 780.140259,496.894470 781.300354,496.816803 
	C793.103943,496.026337 794.774902,494.252075 794.775146,482.575043 
	C794.775208,480.246643 794.775085,477.918274 794.775085,474.775482 
	C796.537415,474.775482 798.114258,474.775482 800.118896,474.775757 
M704.854980,497.858795 
	C705.969116,497.538300 707.130554,497.329224 708.189941,496.879700 
	C716.794189,493.229095 722.218872,486.989868 723.234924,477.521973 
	C724.318542,467.423370 721.060974,459.102386 712.065857,453.791718 
	C704.111450,449.095459 695.890747,449.232727 688.030640,454.052551 
	C678.765381,459.734070 674.922424,471.247070 678.355774,482.015930 
	C681.847839,492.968658 690.767517,498.509888 704.854980,497.858795 
z"/>
<path fill="#0426FE" opacity="1.000000" stroke="none" 
	d="
M519.000000,426.843811 
	C482.043579,426.843597 445.587128,426.843597 408.200531,426.843597 
	C437.198456,376.559296 465.826782,326.915924 495.030243,276.275208 
	C524.066467,326.638336 552.675049,376.259827 581.838745,426.844025 
	C560.519104,426.844025 540.009583,426.844025 519.000000,426.843811 
z"/>
<path fill="#97D7EA" opacity="1.000000" stroke="none" 
	d="
M704.425415,497.901672 
	C690.767517,498.509888 681.847839,492.968658 678.355774,482.015930 
	C674.922424,471.247070 678.765381,459.734070 688.030640,454.052551 
	C695.890747,449.232727 704.111450,449.095459 712.065857,453.791718 
	C721.060974,459.102386 724.318542,467.423370 723.234924,477.521973 
	C722.218872,486.989868 716.794189,493.229095 708.189941,496.879700 
	C707.130554,497.329224 705.969116,497.538300 704.425415,497.901672 
z"/>
</svg>